<svg width="84" height="28" viewBox="0 0 84 28" fill="none" xmlns="http://www.w3.org/2000/svg">
<path d="M35.9469 14.7347C35.9469 18.7632 32.8348 21.7316 29.0155 21.7316C25.1961 21.7316 22.084 18.7632 22.084 14.7347C22.084 10.6779 25.1961 7.73779 29.0155 7.73779C32.8348 7.73779 35.9469 10.6779 35.9469 14.7347ZM32.9126 14.7347C32.9126 12.2173 31.1089 10.4949 29.0155 10.4949C26.922 10.4949 25.1183 12.2173 25.1183 14.7347C25.1183 17.2269 26.922 18.9745 29.0155 18.9745C31.1089 18.9745 32.9126 17.2237 32.9126 14.7347Z" fill="#EA4335"/>
<path d="M50.8998 14.7347C50.8998 18.7632 47.7876 21.7316 43.9683 21.7316C40.149 21.7316 37.0369 18.7632 37.0369 14.7347C37.0369 10.681 40.149 7.73779 43.9683 7.73779C47.7876 7.73779 50.8998 10.6779 50.8998 14.7347ZM47.8655 14.7347C47.8655 12.2173 46.0618 10.4949 43.9683 10.4949C41.8749 10.4949 40.0711 12.2173 40.0711 14.7347C40.0711 17.2269 41.8749 18.9745 43.9683 18.9745C46.0618 18.9745 47.8655 17.2237 47.8655 14.7347Z" fill="#FBBC05"/>
<path d="M65.23 8.16051V20.7222C65.23 25.8894 62.2206 27.9999 58.663 27.9999C55.3141 27.9999 53.2985 25.7317 52.5384 23.8768L55.1802 22.7632C55.6506 23.902 56.8032 25.2459 58.6599 25.2459C60.9372 25.2459 62.3484 23.8231 62.3484 21.1449V20.1386H62.2425C61.5633 20.9872 60.2549 21.7285 58.6038 21.7285C55.149 21.7285 51.9839 18.6811 51.9839 14.76C51.9839 10.8104 55.149 7.73779 58.6038 7.73779C60.2518 7.73779 61.5602 8.47913 62.2425 9.30248H62.3484V8.16366H65.23V8.16051ZM62.5633 14.76C62.5633 12.2962 60.9403 10.4949 58.8749 10.4949C56.7814 10.4949 55.0275 12.2962 55.0275 14.76C55.0275 17.1985 56.7814 18.9745 58.8749 18.9745C60.9403 18.9745 62.5633 17.1985 62.5633 14.76Z" fill="#4285F4"/>
<path d="M69.9807 0.797852V21.3028H67.0212V0.797852H69.9807Z" fill="#34A853"/>
<path d="M81.5139 17.0373L83.8691 18.6272C83.109 19.7661 81.2772 21.7282 78.1121 21.7282C74.1868 21.7282 71.2554 18.6556 71.2554 14.7313C71.2554 10.5704 74.2118 7.73438 77.7725 7.73438C81.3582 7.73438 83.1121 10.624 83.6853 12.1855L83.9999 12.9805L74.7632 16.8544C75.4703 18.2582 76.57 18.9742 78.1121 18.9742C79.6572 18.9742 80.7289 18.2045 81.5139 17.0373ZM74.2647 14.5199L80.4392 11.9237C80.0996 11.0499 79.0778 10.441 77.8753 10.441C76.3333 10.441 74.1868 11.8196 74.2647 14.5199Z" fill="#EA4335"/>
<path d="M10.8816 12.915V9.94648H20.7601C20.8567 10.4638 20.9065 11.0758 20.9065 11.7383C20.9065 13.9655 20.3053 16.7194 18.3676 18.6816C16.4829 20.669 14.0748 21.729 10.8847 21.729C4.97196 21.729 0 16.8519 0 10.8645C0 4.87703 4.97196 0 10.8847 0C14.1558 0 16.486 1.2997 18.2368 2.99372L16.1682 5.08839C14.9128 3.89594 13.2118 2.96849 10.8816 2.96849C6.56387 2.96849 3.18692 6.49219 3.18692 10.8645C3.18692 15.2368 6.56387 18.7605 10.8816 18.7605C13.6822 18.7605 15.2773 17.6217 16.2991 16.5869C17.1277 15.7478 17.6729 14.5491 17.8879 12.9118L10.8816 12.915Z" fill="#4285F4"/>
</svg>
