<svg width="17" height="17" viewBox="0 0 17 17" fill="none" xmlns="http://www.w3.org/2000/svg">
<path d="M6.18182 16.2273H10.8182C14.6818 16.2273 16.2273 14.6818 16.2273 10.8182V6.18182C16.2273 2.31818 14.6818 0.772727 10.8182 0.772727H6.18182C2.31818 0.772727 0.772727 2.31818 0.772727 6.18182V10.8182C0.772727 14.6818 2.31818 16.2273 6.18182 16.2273Z" stroke="#010101" stroke-width="1.5" stroke-linecap="round" stroke-linejoin="round"/>
<path d="M8.5 11.2045C9.99368 11.2045 11.2045 9.99368 11.2045 8.5C11.2045 7.00632 9.99368 5.79545 8.5 5.79545C7.00632 5.79545 5.79545 7.00632 5.79545 8.5C5.79545 9.99368 7.00632 11.2045 8.5 11.2045Z" stroke="#010101" stroke-width="1.5" stroke-linecap="round" stroke-linejoin="round"/>
<path d="M12.8552 4.63636H12.8641" stroke="#010101" stroke-width="2" stroke-linecap="round" stroke-linejoin="round"/>
</svg>
