<svg width="22" height="22" viewBox="0 0 22 22" fill="none" xmlns="http://www.w3.org/2000/svg">
<path d="M7.59448 13.384C7.59448 14.704 8.6075 15.7682 9.8661 15.7682H12.4345C13.5294 15.7682 14.4196 14.837 14.4196 13.691C14.4196 12.4426 13.8773 12.0026 13.0689 11.7161L8.94517 10.2836C8.1368 9.99705 7.59448 9.55705 7.59448 8.30868C7.59448 7.16263 8.48471 6.23147 9.57959 6.23147H12.148C13.4066 6.23147 14.4196 7.29565 14.4196 8.61565" stroke="#010101" stroke-width="1.5" stroke-linecap="round" stroke-linejoin="round"/>
<path d="M11 4.86047V17.1395" stroke="#010101" stroke-width="1.5" stroke-linecap="round" stroke-linejoin="round"/>
<path d="M11 21.2326C16.6513 21.2326 21.2326 16.6513 21.2326 11C21.2326 5.34871 16.6513 0.767442 11 0.767442C5.34871 0.767442 0.767442 5.34871 0.767442 11C0.767442 16.6513 5.34871 21.2326 11 21.2326Z" stroke="#010101" stroke-width="1.5" stroke-linecap="round" stroke-linejoin="round"/>
</svg>
