<svg width="22" height="22" viewBox="0 0 22 22" fill="none" xmlns="http://www.w3.org/2000/svg">
<path d="M3.83721 8.95349H5.88372C7.93023 8.95349 8.95349 7.93023 8.95349 5.88372V3.83721C8.95349 1.7907 7.93023 0.767442 5.88372 0.767442H3.83721C1.7907 0.767442 0.767442 1.7907 0.767442 3.83721V5.88372C0.767442 7.93023 1.7907 8.95349 3.83721 8.95349Z" stroke="#93989A" stroke-width="1.5" stroke-miterlimit="10" stroke-linecap="round" stroke-linejoin="round"/>
<path d="M16.1163 8.95349H18.1628C20.2093 8.95349 21.2326 7.93023 21.2326 5.88372V3.83721C21.2326 1.7907 20.2093 0.767442 18.1628 0.767442H16.1163C14.0698 0.767442 13.0465 1.7907 13.0465 3.83721V5.88372C13.0465 7.93023 14.0698 8.95349 16.1163 8.95349Z" stroke="#93989A" stroke-width="1.5" stroke-miterlimit="10" stroke-linecap="round" stroke-linejoin="round"/>
<path d="M16.1163 21.2326H18.1628C20.2093 21.2326 21.2326 20.2093 21.2326 18.1628V16.1163C21.2326 14.0698 20.2093 13.0465 18.1628 13.0465H16.1163C14.0698 13.0465 13.0465 14.0698 13.0465 16.1163V18.1628C13.0465 20.2093 14.0698 21.2326 16.1163 21.2326Z" stroke="#93989A" stroke-width="1.5" stroke-miterlimit="10" stroke-linecap="round" stroke-linejoin="round"/>
<path d="M3.83721 21.2326H5.88372C7.93023 21.2326 8.95349 20.2093 8.95349 18.1628V16.1163C8.95349 14.0698 7.93023 13.0465 5.88372 13.0465H3.83721C1.7907 13.0465 0.767442 14.0698 0.767442 16.1163V18.1628C0.767442 20.2093 1.7907 21.2326 3.83721 21.2326Z" stroke="#93989A" stroke-width="1.5" stroke-miterlimit="10" stroke-linecap="round" stroke-linejoin="round"/>
</svg>
