<svg width="20" height="19" viewBox="0 0 20 19" fill="none" xmlns="http://www.w3.org/2000/svg">
<path d="M20.0002 9.77V11.83C20.0002 12.39 19.5402 12.85 18.9702 12.85H17.0402C15.9602 12.85 14.9702 12.06 14.8802 10.98C14.8202 10.35 15.0602 9.76 15.4802 9.35C15.8502 8.97 16.3602 8.75 16.9202 8.75H18.9702C19.5402 8.75 20.0002 9.21 20.0002 9.77Z" fill="#15161E"/>
<path d="M13.38 11.1108C13.29 10.0608 13.67 9.03078 14.43 8.28078C15.07 7.63078 15.96 7.25078 16.92 7.25078H17.49C17.77 7.25078 18 7.02078 17.96 6.74078C17.69 4.80078 16.01 3.30078 14 3.30078H4C1.79 3.30078 0 5.09078 0 7.30078V14.3008C0 16.5108 1.79 18.3008 4 18.3008H14C16.02 18.3008 17.69 16.8008 17.96 14.8608C18 14.5808 17.77 14.3508 17.49 14.3508H17.04C15.14 14.3508 13.54 12.9308 13.38 11.1108ZM11 9.05078H5C4.59 9.05078 4.25 8.72078 4.25 8.30078C4.25 7.88078 4.59 7.55078 5 7.55078H11C11.41 7.55078 11.75 7.89078 11.75 8.30078C11.75 8.71078 11.41 9.05078 11 9.05078Z" fill="#15161E"/>
<path d="M12.2102 1.13C12.4702 1.4 12.2402 1.8 11.8602 1.8H4.03015C2.94015 1.8 1.92015 2.12 1.07015 2.67C0.680151 2.92 0.150151 2.65 0.340151 2.22C0.900151 0.91 2.21015 0 3.72015 0H9.34015C10.5002 0 11.5302 0.41 12.2102 1.13Z" fill="#15161E"/>
</svg>
