<svg width="15" height="15" viewBox="0 0 15 15" fill="none" xmlns="http://www.w3.org/2000/svg">
<path d="M10.5 8.175V11.325C10.5 13.95 9.45 15 6.825 15H3.675C1.05 15 0 13.95 0 11.325V8.175C0 5.55 1.05 4.5 3.675 4.5H6.825C9.45 4.5 10.5 5.55 10.5 8.175Z" fill="#B7BABC"/>
<path d="M11.3249 0H8.17495C5.96252 0 4.87416 0.751209 4.58636 2.55369C4.49856 3.10363 4.96244 3.5625 5.51935 3.5625H6.82495C9.97495 3.5625 11.4374 5.025 11.4374 8.175V9.4806C11.4374 10.0375 11.8963 10.5014 12.4463 10.4136C14.2487 10.1258 14.9999 9.03743 14.9999 6.825V3.675C14.9999 1.05 13.9499 0 11.3249 0Z" fill="#B7BABC"/>
</svg>
