<svg width="68" height="24" viewBox="0 0 68 24" fill="none" xmlns="http://www.w3.org/2000/svg">
<path d="M62.07 8.50989L53.51 4.22989C47.76 1.34989 45.4 3.70989 48.28 9.45989L49.15 11.1999C49.4 11.7099 49.4 12.2999 49.15 12.8099L48.28 14.5399C45.4 20.2899 47.75 22.6499 53.51 19.7699L62.07 15.4899C65.91 13.5699 65.91 10.4299 62.07 8.50989ZM58.84 12.7499H53.44C53.03 12.7499 52.69 12.4099 52.69 11.9999C52.69 11.5899 53.03 11.2499 53.44 11.2499H58.84C59.25 11.2499 59.59 11.5899 59.59 11.9999C59.59 12.4099 59.25 12.7499 58.84 12.7499Z" fill="#15161E"/>
<path d="M9 22H15C20 22 22 20 22 15V9C22 4 20 2 15 2H9C4 2 2 4 2 9V15C2 20 4 22 9 22Z" stroke="#93989A" stroke-width="1.5" stroke-linecap="round" stroke-linejoin="round"/>
<path d="M15.5 9.75C16.3284 9.75 17 9.07843 17 8.25C17 7.42157 16.3284 6.75 15.5 6.75C14.6716 6.75 14 7.42157 14 8.25C14 9.07843 14.6716 9.75 15.5 9.75Z" stroke="#93989A" stroke-width="1.5" stroke-miterlimit="10" stroke-linecap="round" stroke-linejoin="round"/>
<path d="M8.5 9.75C9.32843 9.75 10 9.07843 10 8.25C10 7.42157 9.32843 6.75 8.5 6.75C7.67157 6.75 7 7.42157 7 8.25C7 9.07843 7.67157 9.75 8.5 9.75Z" stroke="#93989A" stroke-width="1.5" stroke-miterlimit="10" stroke-linecap="round" stroke-linejoin="round"/>
<path d="M8.4 13.3H15.6C16.1 13.3 16.5 13.7 16.5 14.2C16.5 16.69 14.49 18.7 12 18.7C9.51 18.7 7.5 16.69 7.5 14.2C7.5 13.7 7.9 13.3 8.4 13.3Z" stroke="#93989A" stroke-width="1.5" stroke-miterlimit="10" stroke-linecap="round" stroke-linejoin="round"/>
</svg>
