<svg width="22" height="22" viewBox="0 0 22 22" fill="none" xmlns="http://www.w3.org/2000/svg">
<path d="M11.1228 11.7981C11.0511 11.7879 10.959 11.7879 10.8772 11.7981C9.07625 11.7367 7.64369 10.2632 7.64369 8.45207C7.64369 6.59998 9.13764 5.09579 11 5.09579C12.8521 5.09579 14.3562 6.59998 14.3562 8.45207C14.346 10.2632 12.9237 11.7367 11.1228 11.7981Z" stroke="#93989A" stroke-width="1.5" stroke-linecap="round" stroke-linejoin="round"/>
<path d="M17.8968 18.5517C16.0754 20.2196 13.6605 21.2326 11 21.2326C8.33954 21.2326 5.92466 20.2196 4.10327 18.5517C4.20559 17.5898 4.81954 16.6484 5.91443 15.9117C8.71815 14.0494 13.3023 14.0494 16.0856 15.9117C17.1805 16.6484 17.7944 17.5898 17.8968 18.5517Z" stroke="#93989A" stroke-width="1.5" stroke-linecap="round" stroke-linejoin="round"/>
<path d="M11 21.2326C16.6513 21.2326 21.2326 16.6513 21.2326 11C21.2326 5.34871 16.6513 0.767442 11 0.767442C5.34871 0.767442 0.767442 5.34871 0.767442 11C0.767442 16.6513 5.34871 21.2326 11 21.2326Z" stroke="#93989A" stroke-width="1.5" stroke-linecap="round" stroke-linejoin="round"/>
</svg>
