<svg width="10" height="10" viewBox="0 0 10 10" fill="none" xmlns="http://www.w3.org/2000/svg">
<path d="M5 10C4.56164 10 4.19863 9.84683 3.91096 9.54048C3.63699 9.21955 3.5 8.83297 3.5 8.38074C3.5 7.91393 3.63699 7.52735 3.91096 7.22101C4.19863 6.91466 4.56164 6.76149 5 6.76149C5.43836 6.76149 5.79452 6.91466 6.06849 7.22101C6.35616 7.52735 6.5 7.91393 6.5 8.38074C6.5 8.83297 6.35616 9.21955 6.06849 9.54048C5.79452 9.84683 5.43836 10 5 10ZM5 3.23851C4.56164 3.23851 4.19863 3.08534 3.91096 2.77899C3.63699 2.45806 3.5 2.07148 3.5 1.61926C3.5 1.15244 3.63699 0.765864 3.91096 0.459519C4.19863 0.153173 4.56164 0 5 0C5.43836 0 5.79452 0.153173 6.06849 0.459519C6.35616 0.765864 6.5 1.15244 6.5 1.61926C6.5 2.07148 6.35616 2.45806 6.06849 2.77899C5.79452 3.08534 5.43836 3.23851 5 3.23851Z" fill="#010101"/>
</svg>
