<svg width="21" height="19" viewBox="0 0 21 19" fill="none" xmlns="http://www.w3.org/2000/svg">
<path d="M18.2173 6.70205C16.3955 6.70205 15.6508 5.41375 16.5566 3.83358C17.08 2.91768 16.7679 1.75017 15.852 1.2268L14.1108 0.230384C13.3157 -0.242661 12.2891 0.0391534 11.8161 0.834272L11.7054 1.0255C10.7995 2.60568 9.30993 2.60568 8.39404 1.0255L8.28332 0.834272C7.83041 0.0391534 6.8038 -0.242661 6.00868 0.230384L4.26747 1.2268C3.35158 1.75017 3.03957 2.92775 3.56294 3.84365C4.47883 5.41375 3.73404 6.70205 1.91231 6.70205C0.865572 6.70205 0 7.55755 0 8.61436V10.3858C0 11.4325 0.855508 12.2981 1.91231 12.2981C3.73404 12.2981 4.47883 13.5864 3.56294 15.1665C3.03957 16.0824 3.35158 17.2499 4.26747 17.7733L6.00868 18.7697C6.8038 19.2428 7.83041 18.961 8.30345 18.1658L8.41417 17.9746C9.32 16.3944 10.8096 16.3944 11.7255 17.9746L11.8362 18.1658C12.3092 18.961 13.3359 19.2428 14.131 18.7697L15.8722 17.7733C16.7881 17.2499 17.1001 16.0724 16.5767 15.1665C15.6608 13.5864 16.4056 12.2981 18.2273 12.2981C19.2741 12.2981 20.1397 11.4426 20.1397 10.3858V8.61436C20.1296 7.56762 19.2741 6.70205 18.2173 6.70205ZM10.0648 12.7711C8.2632 12.7711 6.79374 11.3017 6.79374 9.50006C6.79374 7.69846 8.2632 6.229 10.0648 6.229C11.8664 6.229 13.3359 7.69846 13.3359 9.50006C13.3359 11.3017 11.8664 12.7711 10.0648 12.7711Z" fill="#15161E"/>
</svg>
