<svg width="20" height="20" viewBox="0 0 20 20" fill="none" xmlns="http://www.w3.org/2000/svg">
<path d="M5.24 0H3.34C1.15 0 0 1.15 0 3.33V5.23C0 7.41 1.15 8.56 3.33 8.56H5.23C7.41 8.56 8.56 7.41 8.56 5.23V3.33C8.57 1.15 7.42 0 5.24 0Z" fill="#15161E"/>
<path d="M16.6699 0H14.7699C12.5899 0 11.4399 1.15 11.4399 3.33V5.23C11.4399 7.41 12.5899 8.56 14.7699 8.56H16.6699C18.8499 8.56 19.9999 7.41 19.9999 5.23V3.33C19.9999 1.15 18.8499 0 16.6699 0Z" fill="#15161E"/>
<path d="M16.6699 11.4297H14.7699C12.5899 11.4297 11.4399 12.5797 11.4399 14.7597V16.6597C11.4399 18.8397 12.5899 19.9897 14.7699 19.9897H16.6699C18.8499 19.9897 19.9999 18.8397 19.9999 16.6597V14.7597C19.9999 12.5797 18.8499 11.4297 16.6699 11.4297Z" fill="#15161E"/>
<path d="M5.24 11.4297H3.34C1.15 11.4297 0 12.5797 0 14.7597V16.6597C0 18.8497 1.15 19.9997 3.33 19.9997H5.23C7.41 19.9997 8.56 18.8497 8.56 16.6697V14.7697C8.57 12.5797 7.42 11.4297 5.24 11.4297Z" fill="#15161E"/>
</svg>
