<svg width="20" height="20" viewBox="0 0 20 20" fill="none" xmlns="http://www.w3.org/2000/svg">
<path d="M19.777 17.094C19.6232 17.2478 19.4284 17.3195 19.2336 17.3195C19.0388 17.3195 18.844 17.2478 18.6902 17.094L13.6153 12.019L14.1586 11.4756L14.702 10.9323L19.777 16.0072C20.0743 16.3045 20.0743 16.7966 19.777 17.094Z" fill="#15161E"/>
<path d="M5.35175 7.08741L11.2982 13.0338C11.698 13.4337 11.698 14.0796 11.2982 14.4794L10.3754 15.4124C9.545 16.2326 8.23269 16.2326 7.41249 15.4124L2.96294 10.9628C2.153 10.1529 2.153 8.83032 2.96294 8.01012L3.89591 7.07715C4.29575 6.68756 4.95191 6.68756 5.35175 7.08741Z" fill="#15161E"/>
<path d="M17.7777 8.01996L13.8715 11.9159C13.4615 12.326 12.8053 12.326 12.3952 11.9159L6.46929 5.98998C6.0592 5.57989 6.0592 4.92373 6.46929 4.51363L10.3755 0.607457C11.1854 -0.202486 12.508 -0.202486 13.3282 0.607457L17.7777 5.05701C18.5877 5.87721 18.5877 7.18952 17.7777 8.01996Z" fill="#15161E"/>
<path d="M6.92039 19.8721H0.768932C0.348583 19.8721 0 19.5235 0 19.1032C0 18.6828 0.348583 18.3342 0.768932 18.3342H6.92039C7.34074 18.3342 7.68932 18.6828 7.68932 19.1032C7.68932 19.5235 7.34074 19.8721 6.92039 19.8721Z" fill="#15161E"/>
</svg>
