<svg width="49" height="16" viewBox="0 0 49 16" fill="none" xmlns="http://www.w3.org/2000/svg">
<path fill-rule="evenodd" clip-rule="evenodd" d="M12.1758 15.8755H7.96099L4.80043 3.46313C4.65042 2.89216 4.3319 2.3874 3.86336 2.14949C2.69408 1.55163 1.40561 1.07583 0 0.835854V0.357978H6.78965C7.72672 0.357978 8.42952 1.07583 8.54666 1.90952L10.1865 10.863L14.3992 0.357978H18.4969L12.1758 15.8755ZM20.8396 15.8755H16.8591L20.1368 0.357978H24.1173L20.8396 15.8755ZM29.267 4.6567C29.3841 3.82093 30.0869 3.34306 30.9069 3.34306C32.1953 3.22307 33.5989 3.46304 34.7702 4.05884L35.473 0.717847C34.3017 0.239972 33.0132 0 31.8439 0C27.9806 0 25.1694 2.1494 25.1694 5.1325C25.1694 7.40189 27.1606 8.59348 28.5663 9.31133C30.0869 10.0271 30.6726 10.505 30.5555 11.2208C30.5555 12.2944 29.3841 12.7723 28.2148 12.7723C26.8092 12.7723 25.4036 12.4144 24.1172 11.8166L23.4144 15.1596C24.82 15.7554 26.3407 15.9954 27.7463 15.9954C32.0782 16.1133 34.7702 13.966 34.7702 10.7429C34.7702 6.68405 29.267 6.44614 29.267 4.6567ZM48.701 15.8755L45.5404 0.357978H42.1456C41.4428 0.357978 40.74 0.835854 40.5057 1.55163L34.6531 15.8755H38.7508L39.5687 13.6082H44.6034L45.0719 15.8755H48.701ZM42.7313 4.53688L43.9006 10.3852H40.6229L42.7313 4.53688Z" fill="white"/>
</svg>
