<svg width="22" height="21" viewBox="0 0 22 21" fill="none" xmlns="http://www.w3.org/2000/svg">
<path d="M10.9949 13.4899C12.6895 13.4899 14.0632 12.1162 14.0632 10.4216C14.0632 8.72697 12.6895 7.35323 10.9949 7.35323C9.30028 7.35323 7.92654 8.72697 7.92654 10.4216C7.92654 12.1162 9.30028 13.4899 10.9949 13.4899Z" stroke="#93989A" stroke-width="1.5" stroke-miterlimit="10" stroke-linecap="round" stroke-linejoin="round"/>
<path d="M0.767085 11.322V9.52195C0.767085 8.45826 1.63645 7.57867 2.71037 7.57867C4.5616 7.57867 5.31845 6.26951 4.38772 4.66375C3.85588 3.74325 4.17294 2.5466 5.10367 2.01475L6.87308 1.0022C7.68107 0.521493 8.72431 0.807871 9.20502 1.61587L9.31752 1.81019C10.238 3.41596 11.7517 3.41596 12.6825 1.81019L12.795 1.61587C13.2757 0.807871 14.3189 0.521493 15.1269 1.0022L16.8963 2.01475C17.827 2.5466 18.1441 3.74325 17.6123 4.66375C16.6815 6.26951 17.4384 7.57867 19.2896 7.57867C20.3533 7.57867 21.2329 8.44803 21.2329 9.52195V11.322C21.2329 12.3857 20.3635 13.2653 19.2896 13.2653C17.4384 13.2653 16.6815 14.5745 17.6123 16.1802C18.1441 17.111 17.827 18.2974 16.8963 18.8292L15.1269 19.8418C14.3189 20.3225 13.2757 20.0361 12.795 19.2281L12.6825 19.0338C11.762 17.428 10.2483 17.428 9.31752 19.0338L9.20502 19.2281C8.72431 20.0361 7.68107 20.3225 6.87308 19.8418L5.10367 18.8292C4.17294 18.2974 3.85588 17.1007 4.38772 16.1802C5.31845 14.5745 4.5616 13.2653 2.71037 13.2653C1.63645 13.2653 0.767085 12.3857 0.767085 11.322Z" stroke="#93989A" stroke-width="1.5" stroke-miterlimit="10" stroke-linecap="round" stroke-linejoin="round"/>
</svg>
