<svg width="4" height="18" viewBox="0 0 4 18" fill="none" xmlns="http://www.w3.org/2000/svg">
<path d="M4 2C4 0.9 3.1 -3.93402e-08 2 -8.74228e-08C0.9 -1.35505e-07 -3.93402e-08 0.9 -8.74228e-08 2C-1.35505e-07 3.1 0.9 4 2 4C3.1 4 4 3.1 4 2Z" fill="#93989A"/>
<path d="M4 16C4 14.9 3.1 14 2 14C0.9 14 -3.93402e-08 14.9 -8.74228e-08 16C-1.35505e-07 17.1 0.9 18 2 18C3.1 18 4 17.1 4 16Z" fill="#93989A"/>
<path d="M4 9C4 7.9 3.1 7 2 7C0.9 7 -3.93402e-08 7.9 -8.74228e-08 9C-1.35505e-07 10.1 0.9 11 2 11C3.1 11 4 10.1 4 9Z" fill="#93989A"/>
</svg>
