<svg width="16" height="16" viewBox="0 0 16 16" fill="none" xmlns="http://www.w3.org/2000/svg">
<path d="M6.99338 0.353868C7.54518 -0.117956 8.44884 -0.117956 9.00863 0.353868L10.2722 1.44146C10.5121 1.64938 10.9599 1.81732 11.2798 1.81732H12.6393C13.487 1.81732 14.1827 2.51306 14.1827 3.36074V4.72023C14.1827 5.03212 14.3506 5.48795 14.5585 5.72786L15.6461 6.99138C16.118 7.54318 16.118 8.44684 15.6461 9.00663L14.5585 10.2702C14.3506 10.5101 14.1827 10.9579 14.1827 11.2778V12.6373C14.1827 13.485 13.487 14.1807 12.6393 14.1807H11.2798C10.9679 14.1807 10.5121 14.3486 10.2722 14.5566L9.00863 15.6441C8.45683 16.116 7.55317 16.116 6.99338 15.6441L5.72985 14.5566C5.48994 14.3486 5.04211 14.1807 4.72223 14.1807H3.33875C2.49107 14.1807 1.79533 13.485 1.79533 12.6373V11.2698C1.79533 10.9579 1.62739 10.5101 1.42747 10.2702L0.34787 8.99863C-0.115957 8.44684 -0.115957 7.55117 0.34787 6.99938L1.42747 5.72786C1.62739 5.48795 1.79533 5.04011 1.79533 4.72823V3.35274C1.79533 2.50506 2.49107 1.80932 3.33875 1.80932H4.72223C5.03412 1.80932 5.48994 1.64139 5.72985 1.43346L6.99338 0.353868Z" fill="#4297FB"/>
<path d="M5.09809 7.99099L7.02537 9.92627L10.8879 6.05572" fill="#4297FB"/>
<path d="M5.09809 7.99099L7.02537 9.92627L10.8879 6.05572" stroke="white" stroke-width="1.5" stroke-linecap="round" stroke-linejoin="round"/>
</svg>
