<svg width="21" height="22" viewBox="0 0 21 22" fill="none" xmlns="http://www.w3.org/2000/svg">
<path d="M20.9795 7.0842L20.6868 4.28887C20.263 1.24125 18.8804 0 15.9236 0H13.5421H12.0485H8.98072H7.48719H5.06524C2.09835 0 0.725916 1.24125 0.291983 4.31914L0.0195143 7.09429C-0.0814002 8.17408 0.211252 9.22359 0.847013 10.041C1.61396 11.04 2.79466 11.6052 4.10655 11.6052C5.37807 11.6052 6.59914 10.9694 7.36609 9.95017C8.05231 10.9694 9.22292 11.6052 10.5247 11.6052C11.8265 11.6052 12.9668 10.9997 13.6632 9.99054C14.4402 10.9896 15.6411 11.6052 16.8924 11.6052C18.2346 11.6052 19.4456 11.0098 20.2024 9.96026C20.8079 9.15295 21.0804 8.13371 20.9795 7.0842Z" fill="#15161E"/>
<path d="M9.86875 15.5512C8.58714 15.6824 7.61836 16.7722 7.61836 18.0639V20.829C7.61836 21.1015 7.84037 21.3235 8.11284 21.3235H12.9265C13.1989 21.3235 13.4209 21.1015 13.4209 20.829V18.4171C13.431 16.308 12.1898 15.309 9.86875 15.5512Z" fill="#15161E"/>
<path d="M19.9804 13.2703V16.2776C19.9804 19.0628 17.7199 21.3233 14.9347 21.3233C14.6622 21.3233 14.4402 21.1013 14.4402 20.8288V18.417C14.4402 17.1253 14.0466 16.1161 13.2797 15.4299C12.6035 14.8143 11.6852 14.5116 10.5449 14.5116C10.2926 14.5116 10.0403 14.5217 9.76784 14.552C7.97157 14.7336 6.60922 16.2473 6.60922 18.0638V20.8288C6.60922 21.1013 6.38721 21.3233 6.11474 21.3233C3.3295 21.3233 1.06901 19.0628 1.06901 16.2776V13.2905C1.06901 12.5841 1.76532 12.1098 2.42127 12.3419C2.69374 12.4327 2.96621 12.5034 3.24877 12.5438C3.36986 12.5639 3.50105 12.5841 3.62215 12.5841C3.78361 12.6043 3.94508 12.6144 4.10654 12.6144C5.27715 12.6144 6.42757 12.1805 7.33581 11.4337C8.20367 12.1805 9.33391 12.6144 10.5247 12.6144C11.7256 12.6144 12.8356 12.2006 13.7035 11.4539C14.6117 12.1906 15.742 12.6144 16.8924 12.6144C17.0741 12.6144 17.2557 12.6043 17.4273 12.5841C17.5484 12.574 17.6594 12.5639 17.7704 12.5438C18.0832 12.5034 18.3658 12.4126 18.6483 12.3217C19.3043 12.0997 19.9804 12.5841 19.9804 13.2703Z" fill="#15161E"/>
</svg>
