<svg width="8" height="14" viewBox="0 0 8 14" fill="none" xmlns="http://www.w3.org/2000/svg">
<path d="M0.436298 4.96199L3.76754 3.48143C3.9142 3.41857 4.08183 3.41857 4.22151 3.48143L7.55279 4.96199C7.84611 5.09468 8.11845 4.73851 7.91592 4.48709L4.42402 0.21999C4.18657 -0.0733299 3.79549 -0.0733299 3.55804 0.21999L0.0661364 4.48709C-0.12941 4.73851 0.142979 5.09468 0.436298 4.96199Z" fill="#15161E"/>
<path d="M0.43639 9.01286L3.77462 10.4934C3.92128 10.5563 4.08891 10.5563 4.22859 10.4934L7.56682 9.01286C7.86014 8.88017 8.13253 9.23634 7.93 9.48776L4.43809 13.7549C4.20065 14.0482 3.80956 14.0482 3.57211 13.7549L0.080209 9.48776C-0.129305 9.23634 0.136086 8.88017 0.43639 9.01286Z" fill="#15161E"/>
<path d="M3.84448 5.23462L0.960169 6.67328C0.701768 6.79899 0.701768 7.16913 0.960169 7.29484L3.84448 8.7335C3.94226 8.78239 4.06095 8.78239 4.15872 8.7335L7.04303 7.29484C7.30143 7.16913 7.30143 6.79899 7.04303 6.67328L4.15872 5.23462C4.05396 5.18573 3.94226 5.18573 3.84448 5.23462Z" fill="#15161E"/>
</svg>
