<svg width="17" height="17" viewBox="0 0 17 17" fill="none" xmlns="http://www.w3.org/2000/svg">
<path d="M8.5 16.2273C12.7677 16.2273 16.2273 12.7677 16.2273 8.5C16.2273 4.23235 12.7677 0.772727 8.5 0.772727C4.23235 0.772727 0.772727 4.23235 0.772727 8.5C0.772727 12.7677 4.23235 16.2273 8.5 16.2273Z" stroke="#010101" stroke-width="1.5" stroke-linecap="round" stroke-linejoin="round"/>
<path d="M5.40904 1.54545H6.18177C4.67495 6.05818 4.67495 10.9418 6.18177 15.4545H5.40904" stroke="#010101" stroke-width="1.5" stroke-linecap="round" stroke-linejoin="round"/>
<path d="M10.8182 1.54545C12.325 6.05818 12.325 10.9418 10.8182 15.4545" stroke="#010101" stroke-width="1.5" stroke-linecap="round" stroke-linejoin="round"/>
<path d="M1.54545 11.5909V10.8182C6.05818 12.325 10.9418 12.325 15.4545 10.8182V11.5909" stroke="#010101" stroke-width="1.5" stroke-linecap="round" stroke-linejoin="round"/>
<path d="M1.54545 6.18202C6.05818 4.6752 10.9418 4.6752 15.4545 6.18202" stroke="#010101" stroke-width="1.5" stroke-linecap="round" stroke-linejoin="round"/>
</svg>
