<svg width="22" height="22" viewBox="0 0 22 22" fill="none" xmlns="http://www.w3.org/2000/svg">
<path d="M11 21.2326C16.6513 21.2326 21.2326 16.6513 21.2326 11C21.2326 5.34871 16.6513 0.767442 11 0.767442C5.34871 0.767442 0.767442 5.34871 0.767442 11C0.767442 16.6513 5.34871 21.2326 11 21.2326Z" stroke="#010101" stroke-width="1.5" stroke-linecap="round" stroke-linejoin="round"/>
<path d="M6.91722 13.5683C7.10141 13.8753 7.32652 14.1618 7.58233 14.4176C9.46512 16.3004 12.5246 16.3004 14.4177 14.4176C15.1851 13.6502 15.6251 12.6781 15.7684 11.6855" stroke="#010101" stroke-width="1.5" stroke-linecap="round" stroke-linejoin="round"/>
<path d="M6.23159 10.3142C6.37485 9.31145 6.81486 8.34955 7.5823 7.58211C9.46509 5.69932 12.5246 5.69932 14.4176 7.58211C14.6837 7.84815 14.8986 8.13468 15.0827 8.43143" stroke="#010101" stroke-width="1.5" stroke-linecap="round" stroke-linejoin="round"/>
<path d="M6.72274 16.3002V13.5681H9.45481" stroke="#010101" stroke-width="1.5" stroke-linecap="round" stroke-linejoin="round"/>
<path d="M15.2772 5.69936V8.43143H12.5451" stroke="#101010" stroke-width="1.5" stroke-linecap="round" stroke-linejoin="round"/>
</svg>
