<svg width="19" height="19" viewBox="0 0 19 19" fill="none" xmlns="http://www.w3.org/2000/svg">
<path d="M18.2156 6.24906V2.72797C18.2156 1.3422 17.6578 0.7844 16.272 0.7844H12.7509C11.3651 0.7844 10.8073 1.3422 10.8073 2.72797V6.24906C10.8073 7.63483 11.3651 8.19262 12.7509 8.19262H16.272C17.6578 8.19262 18.2156 7.63483 18.2156 6.24906Z" stroke="white" stroke-width="1.5" stroke-linecap="round" stroke-linejoin="round"/>
<path d="M8.19262 6.46694V2.51008C8.19262 1.28119 7.63483 0.7844 6.24906 0.7844H2.72797C1.3422 0.7844 0.7844 1.28119 0.7844 2.51008V6.45823C0.7844 7.69584 1.3422 8.18391 2.72797 8.18391H6.24906C7.63483 8.19262 8.19262 7.69584 8.19262 6.46694Z" stroke="white" stroke-width="1.5" stroke-linecap="round" stroke-linejoin="round"/>
<path d="M8.19262 16.2716V12.7505C8.19262 11.3647 7.63483 10.807 6.24906 10.807H2.72797C1.3422 10.807 0.7844 11.3647 0.7844 12.7505V16.2716C0.7844 17.6574 1.3422 18.2152 2.72797 18.2152H6.24906C7.63483 18.2152 8.19262 17.6574 8.19262 16.2716Z" stroke="white" stroke-width="1.5" stroke-linecap="round" stroke-linejoin="round"/>
<path d="M11.6789 14.2928H16.9083" stroke="white" stroke-width="1.5" stroke-linecap="round"/>
<path d="M14.2936 16.9075V11.6782" stroke="white" stroke-width="1.5" stroke-linecap="round"/>
</svg>
