<svg width="21" height="22" viewBox="0 0 21 22" fill="none" xmlns="http://www.w3.org/2000/svg">
<path d="M1.4515 10.0626V14.5944C1.4515 19.1262 3.26826 20.9429 7.80007 20.9429H13.2403C17.7721 20.9429 19.5888 19.1262 19.5888 14.5944V10.0626" stroke="#93989A" stroke-width="1.5" stroke-linecap="round" stroke-linejoin="round"/>
<path d="M10.5252 10.8501C12.3722 10.8501 13.7348 9.34622 13.5531 7.49918L12.887 0.756983H8.17349L7.49725 7.49918C7.31558 9.34622 8.67815 10.8501 10.5252 10.8501Z" stroke="#93989A" stroke-width="1.5" stroke-linecap="round" stroke-linejoin="round"/>
<path d="M16.894 10.8501C18.9328 10.8501 20.4266 9.19482 20.2247 7.16611L19.9421 4.3905C19.5788 1.76629 18.5695 0.756983 15.9251 0.756983H12.8467L13.5532 7.83225C13.7248 9.49762 15.2286 10.8501 16.894 10.8501Z" stroke="#93989A" stroke-width="1.5" stroke-linecap="round" stroke-linejoin="round"/>
<path d="M4.10598 10.8501C5.77135 10.8501 7.27522 9.49762 7.43671 7.83225L7.65876 5.60168L8.14323 0.756983H5.06483C2.42043 0.756983 1.41112 1.76629 1.04777 4.3905L0.775257 7.16611C0.573395 9.19482 2.06717 10.8501 4.10598 10.8501Z" stroke="#93989A" stroke-width="1.5" stroke-linecap="round" stroke-linejoin="round"/>
<path d="M10.5252 15.8966C8.83965 15.8966 8.00192 16.7344 8.00192 18.4199V20.9432H13.0485V18.4199C13.0485 16.7344 12.2107 15.8966 10.5252 15.8966Z" stroke="#93989A" stroke-width="1.5" stroke-linecap="round" stroke-linejoin="round"/>
</svg>
