<svg width="22" height="22" viewBox="0 0 22 22" fill="none" xmlns="http://www.w3.org/2000/svg">
<path d="M7.39811 18.1126H6.88789C2.80618 18.1126 0.765321 17.0922 0.765321 11.99V6.88789C0.765321 2.80618 2.80618 0.765321 6.88789 0.765321H15.0513C19.133 0.765321 21.1739 2.80618 21.1739 6.88789V11.99C21.1739 16.0717 19.133 18.1126 15.0513 18.1126H14.5411C14.2248 18.1126 13.9186 18.2657 13.7248 18.5208L12.1941 20.5616C11.5206 21.4596 10.4186 21.4596 9.74509 20.5616L8.21445 18.5208C8.05118 18.2963 7.67362 18.1126 7.39811 18.1126Z" stroke="#93989A" stroke-width="1.5" stroke-miterlimit="10" stroke-linecap="round" stroke-linejoin="round"/>
<path d="M15.0477 9.94918H15.0569" stroke="#93989A" stroke-width="2" stroke-linecap="round" stroke-linejoin="round"/>
<path d="M10.965 9.94918H10.9742" stroke="#93989A" stroke-width="2" stroke-linecap="round" stroke-linejoin="round"/>
<path d="M6.88229 9.94918H6.89145" stroke="#93989A" stroke-width="2" stroke-linecap="round" stroke-linejoin="round"/>
</svg>
