<svg width="22" height="20" viewBox="0 0 22 20" fill="none" xmlns="http://www.w3.org/2000/svg">
<path d="M11.8624 9.1472H5.80499" stroke="#93989A" stroke-width="1.5" stroke-linecap="round" stroke-linejoin="round"/>
<path d="M0.757172 9.14664V4.48246C0.757172 2.42295 2.42295 0.757172 4.48246 0.757172H10.1562C12.2157 0.757172 13.8815 2.03932 13.8815 4.09882" stroke="#93989A" stroke-width="1.5" stroke-linecap="round" stroke-linejoin="round"/>
<path d="M16.3852 10.2072C15.8804 10.6918 15.6381 11.4389 15.84 12.2061C16.0924 13.145 17.0212 13.7407 17.9904 13.7407H18.9293V15.2046C18.9293 17.4357 17.1222 19.2428 14.8911 19.2428H4.79543C2.56429 19.2428 0.757172 17.4357 0.757172 15.2046V8.13763C0.757172 5.9065 2.56429 4.09938 4.79543 4.09938H14.8911C17.1121 4.09938 18.9293 5.91659 18.9293 8.13763V9.60145H17.839C17.2736 9.60145 16.7587 9.82359 16.3852 10.2072Z" stroke="#93989A" stroke-width="1.5" stroke-linecap="round" stroke-linejoin="round"/>
<path d="M20.9484 10.6305V12.7102C20.9484 13.2755 20.484 13.74 19.9085 13.74H17.9601C16.8697 13.74 15.8703 12.9424 15.7794 11.8521C15.7189 11.2161 15.9611 10.6204 16.3852 10.2065C16.7587 9.82285 17.2736 9.60071 17.8389 9.60071H19.9085C20.484 9.60071 20.9484 10.0651 20.9484 10.6305Z" stroke="#93989A" stroke-width="1.5" stroke-linecap="round" stroke-linejoin="round"/>
</svg>
