<svg width="22" height="21" viewBox="0 0 22 21" fill="none" xmlns="http://www.w3.org/2000/svg">
<path d="M20.9123 8.89621L19.9088 13.1761C19.0488 16.8724 17.3491 18.3673 14.1545 18.0601C13.6426 18.0192 13.0896 17.927 12.4958 17.7837L10.7756 17.3741C6.50597 16.3604 5.18513 14.2512 6.18856 9.97131L7.19198 5.68116C7.39676 4.81084 7.6425 4.05316 7.94967 3.42858C9.14763 0.950736 11.1852 0.285201 14.605 1.09408L16.3149 1.4934C20.6051 2.49683 21.9157 4.6163 20.9123 8.89621Z" stroke="#010101" stroke-width="1.5" stroke-linecap="round" stroke-linejoin="round"/>
<path d="M14.1544 18.0602C13.5196 18.4903 12.721 18.8486 11.7483 19.166L10.1305 19.6985C6.0656 21.0091 3.92565 19.9135 2.60482 15.8486L1.29422 11.8042C-0.0163691 7.73929 1.06897 5.5891 5.13385 4.27851L6.75162 3.74608C7.17142 3.61297 7.57074 3.50034 7.94958 3.42867C7.64241 4.05325 7.39667 4.81094 7.19189 5.68125L6.18847 9.9714C5.18505 14.2513 6.50588 16.3605 10.7755 17.3742L12.4957 17.7838C13.0896 17.9271 13.6425 18.0193 14.1544 18.0602Z" stroke="#010101" stroke-width="1.5" stroke-linecap="round" stroke-linejoin="round"/>
<path d="M11.6766 6.94133L16.6425 8.20073" stroke="#010101" stroke-width="1.5" stroke-linecap="round" stroke-linejoin="round"/>
<path d="M10.6732 10.9039L13.6425 11.6616" stroke="#010101" stroke-width="1.5" stroke-linecap="round" stroke-linejoin="round"/>
</svg>
